<svg xmlns="http://www.w3.org/2000/svg" width="1024" height="1024" viewBox="13.239999771118164 3.9236907958984375 997.52001953125 1016.0582885742188" class="colorable-icon" data-export-recolorable-svg="true" overflow="visible"><g fill="none" stroke="black" stroke-width="45" stroke-linecap="round" stroke-linejoin="round"><path d="M 384.851,823.664 C 430.459,837.655 477.476,853.862 514.39,867.889 C 550.807,883.616 605.644,909.682 732.353,975.753" data-line="nan" stroke-width="45.0"></path><path d="M 1010.76,699.652 C 989.668,693.39 945.198,684.283 934.809,680.73 C 927.247,676.916 832.942,616.314 819.398,606.844 C 808.616,596.404 803.821,588.435 800.667,580.425" data-line="nan" stroke-width="45.0"></path><path d="M 1010.76,699.652 C 1004.804,721.972 1000.689,729.919 997.109,734.948 C 990.29,742.428 982.506,749.019 971.597,755.764 C 964.027,759.4 951.499,763.65 941.919,765.833 C 929.968,767.247 915.002,767.286 894.551,764.383 C 881.514,760.86 866.7,755.683 850.287,748.696 C 829.32,738.473 784.14,713.483 749.151,692.511 C 736.863,683.373 729.352,676.727 715.81,661.674 Q 706.193,646.675 674.062,571.927" data-line="nan" stroke-width="45.0"></path><path d="M 351.737,582.496 C 329.72,632.317 321.856,647.569 311.352,662.384 C 302.943,671.771 293.553,680.637 283.618,688.758 C 268.406,699.304 228.725,722.828 189.109,743.26 C 154.445,758.022 129.48,764.975 119.531,766.582 C 104.734,767.608 85.033,766.4 75.156,764.285 C 65.361,760.962 55.402,756.162 45.575,749.646 C 35.828,740.845 31.486,735.88 22.861,722.177 L 13.24,701.16" data-line="nan" stroke-width="45.0"></path><path d="M 757.778,798.642 C 797.236,791.823 824.864,789.902 837.47,790.396 C 847.461,791.74 861.089,795.189 871.848,799.423 C 884.0,806.239 891.975,811.876 901.279,820.219 C 909.798,829.959 918.071,842.272 923.905,853.755 C 929.244,868.762 931.75,879.592 933.239,892.135 C 933.395,904.424 931.96,916.988 928.768,929.76 C 924.759,940.489 917.824,953.785 909.097,966.529 C 901.424,975.463 892.076,984.498 880.469,993.578 C 867.415,1001.481 856.658,1006.705 842.915,1011.891 C 827.539,1015.96 813.593,1018.43 798.451,1019.838" data-line="nan" stroke-width="45.0"></path><path d="M 246.392,1019.981 C 226.534,1019.386 206.132,1016.788 187.608,1012.337 C 170.501,1005.952 154.985,997.681 140.574,987.4 C 128.346,976.277 115.77,961.203 107.084,946.901 C 99.899,929.583 96.399,914.715 94.901,897.521 C 96.073,880.138 100.438,860.784 106.318,846.162 C 114.916,831.846 123.281,821.913 129.874,815.908 C 142.126,807.13 153.369,800.734 163.926,796.36 C 176.243,792.792 185.714,790.977 200.168,789.772 C 232.244,791.371 281.545,798.887 338.996,811.27 L 384.851,823.664" data-line="nan" stroke-width="45.0"></path><path d="M 753.107,412.637 C 749.017,398.982 745.162,389.187 740.911,381.429 C 733.14,370.403 726.418,362.805 717.866,354.953 C 709.123,348.192 699.078,341.868 681.157,334.021 C 667.397,330.032 654.82,327.594 635.018,325.597 L 590.485,325.126" data-line="nan" stroke-width="45.0"></path><path d="M 404.872,324.913 C 377.287,326.671 362.557,329.396 352.954,332.146 C 338.213,338.057 328.49,343.232 318.672,349.67 C 309.134,357.319 296.22,370.932 289.158,380.736 C 283.9,390.269 278.363,404.899 265.528,449.596" data-line="nan" stroke-width="45.0"></path><path d="M 265.528,449.596 C 228.42,578.542 223.894,588.839 220.577,593.962 C 211.756,603.653 201.68,612.013 186.805,622.253 C 112.058,670.996 97.24,679.459 87.283,683.562 C 77.211,686.524 37.306,694.498 13.24,701.16" data-line="nan" stroke-width="45.0"></path><circle cx="513.9782732125227" cy="131.28173720076398" r="127.35804596804772" data-line="0.0" stroke-width="45.0"></circle><path d="M 516.832,868.944 L 757.778,798.642" data-line="2.0" stroke-width="45.0"></path><path d="M 665.929,587.274 L 667.015,481.629" data-line="6.0" stroke-width="45.0"></path><path d="M 663.353,576.889 L 654.298,822.788" data-line="7.0" stroke-width="45.0"></path><path d="M 374.036,820.271 L 364.89,577.745" data-line="8.0" stroke-width="45.0"></path><path d="M 361.471,483.301 L 365.021,586.303" data-line="9.0" stroke-width="45.0"></path><path d="M 800.667,580.425 L 753.107,412.637" data-line="10.0" stroke-width="45.0"></path><path d="M 709.305,1019.982 L 246.392,1019.981" data-line="12.0" stroke-width="45.0"></path><path d="M 798.451,1019.838 L 709.305,1019.982" data-line="14.0" stroke-width="45.0"></path><path d="M 590.485,325.126 L 404.872,324.913" data-line="15.0" stroke-width="45.0"></path></g></svg>