<svg xmlns="http://www.w3.org/2000/svg" width="1024" height="1024" viewBox="4.019000053405762 31.24799919128418 1015.9800415039062 961.5040893554688" class="colorable-icon" data-export-recolorable-svg="true" overflow="visible"><g fill="none" stroke="black" stroke-width="45" stroke-linecap="round" stroke-linejoin="round"><path d="M 189.755,294.306 C 174.072,294.942 156.41,297.598 137.143,302.571 C 120.805,308.571 104.385,316.36 90.447,324.593 C 77.333,333.946 62.091,347.132 49.48,360.453 C 38.915,373.914 28.972,389.419 20.738,405.503 C 14.499,421.141 9.533,437.749 6.098,455.202 L 4.183,474.796" data-line="nan" stroke-width="45.0"></path><path d="M 4.019,818.287 C 5.199,842.358 10.208,868.288 18.295,891.189 C 29.664,913.025 43.968,932.985 60.487,950.269 C 80.326,965.813 99.021,976.69 110.479,981.831 C 122.382,986.037 144.975,991.243 168.21,992.591 C 190.384,991.365 210.551,986.892 229.935,979.281 C 250.913,966.793 259.371,960.223 268.851,951.156" data-line="nan" stroke-width="45.0"></path><path d="M 344.325,866.585 C 354.614,856.923 367.888,847.445 380.368,840.765 C 392.234,836.059 404.761,832.622 416.315,830.849 L 454.228,830.316" data-line="nan" stroke-width="45.0"></path><path d="M 597.964,830.379 C 611.259,831.012 622.7,832.964 631.882,835.48 C 644.32,840.247 653.326,844.805 663.147,851.042 Q 671.867,857.779 680.886,866.195" data-line="nan" stroke-width="45.0"></path><path d="M 758.147,952.552 C 775.189,967.446 791.999,977.906 809.664,985.524 C 821.17,988.983 832.719,991.306 854.931,992.752 C 879.477,991.24 900.902,986.33 921.688,978.32 C 939.994,968.196 959.752,953.48 976.923,936.394 C 991.422,917.308 1003.194,896.542 1011.364,876.224 Q 1016.703,855.68 1019.718,831.64" data-line="nan" stroke-width="45.0"></path><path d="M 1019.999,483.656 C 1019.486,465.908 1017.139,448.102 1013.494,432.105 C 1007.939,414.898 1000.109,397.071 991.693,382.247 C 981.989,368.208 970.64,354.656 957.232,341.482 C 943.811,330.672 929.898,321.319 913.949,312.668 C 897.075,305.522 881.174,300.533 862.547,296.53 L 843.761,294.481" data-line="nan" stroke-width="45.0"></path><circle cx="673.2282555633477" cy="596.2350450046371" r="41.92777775001757" data-line="0.0" stroke-width="45.0"></circle><path d="M 704.8,568.282 L 708.488,572.091" data-line="1.0" stroke-width="45.0"></path><path d="M 282.915,457.041 L 221.061,456.892" data-line="3.0" stroke-width="45.0"></path><path d="M 284.145,563.86 L 282.915,457.041" data-line="4.0" stroke-width="45.0"></path><path d="M 388.653,565.763 L 284.145,563.86" data-line="5.0" stroke-width="45.0"></path><path d="M 388.653,565.763 L 388.49,626.917" data-line="6.0" stroke-width="45.0"></path><path d="M 388.49,626.917 L 283.275,628.179" data-line="7.0" stroke-width="45.0"></path><path d="M 283.275,628.179 L 283.01,735.199" data-line="8.0" stroke-width="45.0"></path><path d="M 283.01,735.199 L 221.079,735.447" data-line="9.0" stroke-width="45.0"></path><path d="M 221.079,735.447 L 219.96,627.895" data-line="10.0" stroke-width="45.0"></path><path d="M 219.96,627.895 L 114.014,627.468" data-line="11.0" stroke-width="45.0"></path><path d="M 114.1,565.99 L 114.014,627.468" data-line="12.0" stroke-width="45.0"></path><path d="M 220.954,564.78 L 114.1,565.99" data-line="13.0" stroke-width="45.0"></path><path d="M 221.061,456.892 L 220.954,564.78" data-line="14.0" stroke-width="45.0"></path><path d="M 4.183,474.796 L 4.029,541.252" data-line="27.0" stroke-width="45.0"></path><path d="M 268.851,951.156 L 344.325,866.585" data-line="29.0" stroke-width="45.0"></path><path d="M 680.886,866.195 L 758.147,952.552" data-line="32.0" stroke-width="45.0"></path><path d="M 502.477,294.323 L 189.755,294.306" data-line="33.0" stroke-width="45.0"></path><path d="M 512.004,294.323 L 512.012,31.248" data-line="34.0" stroke-width="45.0"></path><path d="M 1019.718,831.64 L 1019.961,745.053" data-line="34.0" stroke-width="45.0"></path><path d="M 843.761,294.481 L 775.183,294.303" data-line="36.0" stroke-width="45.0"></path><circle cx="784.7790853067223" cy="484.06689073081344" r="41.79594925265661" data-line="37.0" stroke-width="45.0"></circle><path d="M 746.069,499.287 L 748.011,504.754" data-line="38.0" stroke-width="45.0"></path><circle cx="783.091766247736" cy="708.41857543362" r="41.6854869396895" data-line="40.0" stroke-width="45.0"></circle><path d="M 808.278,741.84 L 811.72,739.387" data-line="41.0" stroke-width="45.0"></path><circle cx="893.6196484538319" cy="595.6537807713154" r="41.86376705648491" data-line="43.0" stroke-width="45.0"></circle><path d="M 929.676,617.204 L 932.535,612.741" data-line="44.0" stroke-width="45.0"></path><path d="M 4.029,541.252 L 4.019,818.287" data-line="46.0" stroke-width="45.0"></path><path d="M 454.228,830.316 L 597.964,830.379" data-line="48.0" stroke-width="45.0"></path><path d="M 1019.961,745.053 L 1019.999,483.656" data-line="50.0" stroke-width="45.0"></path><path d="M 775.183,294.303 L 502.477,294.323" data-line="52.0" stroke-width="45.0"></path></g></svg>